<svg width="16" height="16" viewBox="0 0 16 16" fill="none" xmlns="http://www.w3.org/2000/svg">
<g clip-path="url(#clip0_2_43)">
<path d="M7.34467 1.87602C7.37323 1.72309 7.45438 1.58496 7.57407 1.48557C7.69375 1.38617 7.84442 1.33176 8 1.33176C8.15558 1.33176 8.30625 1.38617 8.42594 1.48557C8.54562 1.58496 8.62677 1.72309 8.65533 1.87602L9.356 5.58135C9.40576 5.84479 9.53378 6.0871 9.72335 6.27667C9.91292 6.46624 10.1552 6.59426 10.4187 6.64402L14.124 7.34469C14.2769 7.37325 14.4151 7.4544 14.5145 7.57408C14.6139 7.69377 14.6683 7.84444 14.6683 8.00002C14.6683 8.1556 14.6139 8.30627 14.5145 8.42596C14.4151 8.54564 14.2769 8.62679 14.124 8.65535L10.4187 9.35602C10.1552 9.40578 9.91292 9.5338 9.72335 9.72337C9.53378 9.91294 9.40576 10.1553 9.356 10.4187L8.65533 14.124C8.62677 14.277 8.54562 14.4151 8.42594 14.5145C8.30625 14.6139 8.15558 14.6683 8 14.6683C7.84442 14.6683 7.69375 14.6139 7.57407 14.5145C7.45438 14.4151 7.37323 14.277 7.34467 14.124L6.644 10.4187C6.59424 10.1553 6.46622 9.91294 6.27665 9.72337C6.08708 9.5338 5.84477 9.40578 5.58133 9.35602L1.876 8.65535C1.72307 8.62679 1.58494 8.54564 1.48555 8.42596C1.38615 8.30627 1.33174 8.1556 1.33174 8.00002C1.33174 7.84444 1.38615 7.69377 1.48555 7.57408C1.58494 7.4544 1.72307 7.37325 1.876 7.34469L5.58133 6.64402C5.84477 6.59426 6.08708 6.46624 6.27665 6.27667C6.46622 6.0871 6.59424 5.84479 6.644 5.58135L7.34467 1.87602Z" stroke="#C27AFF" stroke-width="1.33333" stroke-linecap="round" stroke-linejoin="round"/>
<path d="M13.3333 1.33334V4.00001" stroke="#C27AFF" stroke-width="1.33333" stroke-linecap="round" stroke-linejoin="round"/>
<path d="M14.6667 2.66666H12" stroke="#C27AFF" stroke-width="1.33333" stroke-linecap="round" stroke-linejoin="round"/>
<path d="M2.66667 14.6667C3.40305 14.6667 4 14.0697 4 13.3333C4 12.597 3.40305 12 2.66667 12C1.93029 12 1.33333 12.597 1.33333 13.3333C1.33333 14.0697 1.93029 14.6667 2.66667 14.6667Z" stroke="#C27AFF" stroke-width="1.33333" stroke-linecap="round" stroke-linejoin="round"/>
</g>
<defs>
<clipPath id="clip0_2_43">
<rect width="16" height="16" fill="white"/>
</clipPath>
</defs>
</svg>
