<svg width="16" height="16" viewBox="0 0 16 16" fill="none" xmlns="http://www.w3.org/2000/svg">
<path d="M8.66667 3.33333H14" stroke="url(#paint0_linear_2_25)" stroke-width="1.33333" stroke-linecap="round" stroke-linejoin="round"/>
<path d="M8.66667 8H14" stroke="url(#paint1_linear_2_25)" stroke-width="1.33333" stroke-linecap="round" stroke-linejoin="round"/>
<path d="M8.66667 12.6667H14" stroke="url(#paint2_linear_2_25)" stroke-width="1.33333" stroke-linecap="round" stroke-linejoin="round"/>
<path d="M2 11.3333L3.33333 12.6667L6 10" stroke="url(#paint3_linear_2_25)" stroke-width="1.33333" stroke-linecap="round" stroke-linejoin="round"/>
<path d="M5.33333 2.66667H2.66667C2.29848 2.66667 2 2.96515 2 3.33334V6.00001C2 6.3682 2.29848 6.66667 2.66667 6.66667H5.33333C5.70152 6.66667 6 6.3682 6 6.00001V3.33334C6 2.96515 5.70152 2.66667 5.33333 2.66667Z" stroke="url(#paint4_linear_2_25)" stroke-width="1.33333" stroke-linecap="round" stroke-linejoin="round"/>
<defs>
<linearGradient id="paint0_linear_2_25" x1="8.66667" y1="3.83333" x2="14" y2="3.83333" gradientUnits="userSpaceOnUse">
<stop stop-color="#C27AFF"/>
<stop offset="0.5" stop-color="#FB64B6"/>
<stop offset="1" stop-color="#51A2FF"/>
</linearGradient>
<linearGradient id="paint1_linear_2_25" x1="8.66667" y1="8.5" x2="14" y2="8.5" gradientUnits="userSpaceOnUse">
<stop stop-color="#C27AFF"/>
<stop offset="0.5" stop-color="#FB64B6"/>
<stop offset="1" stop-color="#51A2FF"/>
</linearGradient>
<linearGradient id="paint2_linear_2_25" x1="8.66667" y1="13.1667" x2="14" y2="13.1667" gradientUnits="userSpaceOnUse">
<stop stop-color="#C27AFF"/>
<stop offset="0.5" stop-color="#FB64B6"/>
<stop offset="1" stop-color="#51A2FF"/>
</linearGradient>
<linearGradient id="paint3_linear_2_25" x1="2" y1="11.3333" x2="6" y2="11.3333" gradientUnits="userSpaceOnUse">
<stop stop-color="#C27AFF"/>
<stop offset="0.5" stop-color="#FB64B6"/>
<stop offset="1" stop-color="#51A2FF"/>
</linearGradient>
<linearGradient id="paint4_linear_2_25" x1="2" y1="4.66667" x2="6" y2="4.66667" gradientUnits="userSpaceOnUse">
<stop stop-color="#C27AFF"/>
<stop offset="0.5" stop-color="#FB64B6"/>
<stop offset="1" stop-color="#51A2FF"/>
</linearGradient>
</defs>
</svg>
