<svg width="32" height="32" viewBox="0 0 32 32" fill="none" xmlns="http://www.w3.org/2000/svg">
<path d="M28.5495 14.5573C28.7881 14.4521 28.9906 14.2791 29.1319 14.0599C29.2732 13.8407 29.347 13.5849 29.3443 13.3241C29.3416 13.0633 29.2625 12.8091 29.1167 12.5928C28.971 12.3766 28.7649 12.2079 28.5242 12.1076L17.1004 6.90415C16.7531 6.74573 16.3758 6.66376 15.9941 6.66376C15.6124 6.66376 15.2352 6.74573 14.8879 6.90415L3.46539 12.1022C3.2281 12.2062 3.02624 12.377 2.88449 12.5938C2.74274 12.8106 2.66725 13.0641 2.66725 13.3231C2.66725 13.5822 2.74274 13.8356 2.88449 14.0524C3.02624 14.2693 3.2281 14.4401 3.46539 14.544L14.8879 19.7528C15.2352 19.9112 15.6124 19.9932 15.9941 19.9932C16.3758 19.9932 16.7531 19.9112 17.1004 19.7528L28.5495 14.5573Z" stroke="#C27AFF" stroke-width="2.66569" stroke-linecap="round" stroke-linejoin="round"/>
<path d="M29.3226 13.3284V21.3255" stroke="#C27AFF" stroke-width="2.66569" stroke-linecap="round" stroke-linejoin="round"/>
<path d="M7.99707 16.6606V21.3255C7.99707 22.386 8.83962 23.4031 10.3394 24.1529C11.8391 24.9028 13.8732 25.3241 15.9941 25.3241C18.1151 25.3241 20.1492 24.9028 21.6489 24.1529C23.1487 23.4031 23.9912 22.386 23.9912 21.3255V16.6606" stroke="#C27AFF" stroke-width="2.66569" stroke-linecap="round" stroke-linejoin="round"/>
</svg>
